<?xml version="1.0" standalone="no"?>
<!DOCTYPE svg PUBLIC "-//W3C//DTD SVG 20010904//EN"
 "http://www.w3.org/TR/2001/REC-SVG-20010904/DTD/svg10.dtd">
<svg version="1.0" xmlns="http://www.w3.org/2000/svg"
 width="374.000000pt" height="137.000000pt" viewBox="0 0 374.000000 137.000000"
 preserveAspectRatio="xMidYMid meet">

<g transform="translate(0.000000,137.000000) scale(0.100000,-0.100000)"
fill="#000000" stroke="none">
<path d="M3150 1070 l0 -90 65 0 65 0 0 90 0 90 -65 0 -65 0 0 -90z"/>
<path d="M3450 1070 l0 -90 60 0 60 0 0 90 0 90 -60 0 -60 0 0 -90z"/>
<path d="M3359 1113 c0 -5 -2 -18 -3 -31 -4 -31 8 -36 29 -12 15 16 15 22 5
35 -13 16 -29 20 -31 8z"/>
<path d="M2465 1069 c-56 -17 -95 -65 -95 -116 0 -25 -5 -32 -22 -35 -20 -3
-23 -10 -26 -50 -3 -46 -2 -48 22 -48 l26 0 0 -125 0 -125 55 0 54 0 3 123 3
122 40 5 c40 5 40 5 43 53 l3 47 -40 0 c-37 0 -41 2 -41 25 0 27 33 42 68 31
15 -5 23 1 36 28 9 19 16 41 16 49 0 25 -85 34 -145 16z"/>
<path d="M2792 1071 c-18 -5 -42 -17 -53 -27 -23 -21 -49 -77 -49 -105 0 -11
-9 -19 -22 -21 -20 -3 -23 -10 -26 -50 -3 -45 -2 -48 22 -48 31 0 33 -10 28
-142 l-5 -108 62 0 61 0 0 125 0 125 39 0 c38 0 39 1 43 43 3 23 3 45 1 50 -2
4 -22 7 -44 7 -32 0 -39 3 -39 20 0 25 34 43 69 35 26 -5 29 -2 46 40 9 25 15
48 12 51 -10 10 -112 13 -145 5z"/>
<path d="M1172 1013 l3 -48 73 -3 72 -3 0 -194 0 -195 60 0 60 0 0 195 0 194
73 3 72 3 3 48 3 47 -211 0 -211 0 3 -47z"/>
<path d="M2992 1018 c3 -43 3 -43 43 -43 40 0 40 0 43 43 l3 42 -46 0 -46 0 3
-42z"/>
<path d="M3353 1023 c9 -2 23 -2 30 0 6 3 -1 5 -18 5 -16 0 -22 -2 -12 -5z"/>
<path d="M428 993 c7 -3 16 -2 19 1 4 3 -2 6 -13 5 -11 0 -14 -3 -6 -6z"/>
<path d="M420 979 c-25 -5 -51 -10 -57 -11 -7 -1 -13 -5 -13 -10 0 -5 -6 -6
-12 -2 -10 5 -10 4 -1 -6 14 -15 6 -43 -10 -33 -6 3 -7 1 -3 -6 4 -6 12 -9 17
-6 5 4 9 3 9 -2 0 -4 23 -32 50 -62 31 -33 54 -69 61 -95 15 -54 6 -162 -16
-206 -21 -41 -24 -44 -139 -135 -48 -38 -104 -84 -124 -101 l-35 -32 43 -7
c55 -9 144 2 197 25 155 68 263 236 249 388 -8 97 -43 177 -103 240 -37 39
-56 53 -69 48 -14 -5 -15 -4 -4 9 7 8 11 14 9 14 -2 -1 -24 -5 -49 -10z"/>
<path d="M830 940 c0 -5 5 -10 10 -10 6 0 10 5 10 10 0 6 -4 10 -10 10 -5 0
-10 -4 -10 -10z"/>
<path d="M2013 920 c-82 -12 -82 -12 -70 -59 l11 -41 84 7 c66 5 86 3 93 -8
19 -30 8 -36 -63 -41 -90 -7 -122 -21 -143 -64 -20 -43 -11 -94 22 -126 35
-33 128 -33 172 0 29 21 37 18 32 -10 0 -5 22 -8 49 -8 l50 0 0 125 c0 142
-12 185 -57 208 -37 20 -116 27 -180 17z m120 -241 c-12 -45 -84 -64 -106 -27
-18 28 9 48 63 48 44 0 48 -2 43 -21z"/>
<path d="M815 910 c-3 -5 -20 -14 -38 -18 -24 -7 -31 -14 -29 -28 3 -19 3 -19
-11 0 -9 12 -16 15 -21 8 -3 -6 -2 -13 4 -17 5 -3 10 -12 10 -18 0 -7 -5 -4
-11 6 -5 9 -17 17 -25 17 -13 0 -12 -3 1 -23 21 -33 30 -179 16 -262 -28 -162
-150 -298 -324 -363 -33 -12 -69 -22 -80 -22 -53 -1 -49 -16 20 -72 118 -95
107 -92 194 -54 173 75 303 217 364 400 41 121 61 136 187 136 81 0 91 2 113
25 32 31 33 74 3 102 -19 18 -38 22 -113 24 -57 2 -95 8 -103 16 -8 7 -17 11
-22 8 -5 -3 -11 -1 -15 5 -4 6 -11 7 -17 4 -6 -4 -8 -2 -4 4 3 6 -7 32 -24 58
-16 26 -30 54 -30 61 0 15 -36 18 -45 3z m32 -7 c-4 -3 -2 -12 5 -20 6 -7 8
-16 4 -20 -3 -3 -6 -1 -6 5 0 6 -6 9 -14 6 -12 -5 -15 7 -7 34 1 1 6 2 13 2 6
0 8 -3 5 -7z m37 -79 c3 -8 2 -12 -4 -9 -6 3 -10 10 -10 16 0 14 7 11 14 -7z
m-30 -10 c3 -8 2 -12 -4 -9 -6 3 -10 10 -10 16 0 14 7 11 14 -7z"/>
<path d="M1610 745 l0 -175 55 0 55 0 0 104 c0 101 1 105 26 125 17 13 41 21
66 21 35 0 40 3 54 35 25 60 21 65 -49 65 -39 0 -70 -6 -84 -15 -19 -13 -22
-13 -27 0 -4 10 -20 15 -51 15 l-45 0 0 -175z"/>
<path d="M2980 745 l0 -175 55 0 55 0 0 175 0 175 -55 0 -55 0 0 -175z"/>
<path d="M3167 908 c5 -7 33 -43 61 -79 29 -37 52 -72 52 -78 0 -7 -29 -48
-65 -92 -36 -44 -65 -82 -65 -84 0 -3 26 -5 58 -5 l59 0 39 55 c21 30 42 55
46 55 4 0 26 -25 48 -55 l41 -55 59 0 c33 0 60 2 60 5 0 4 -29 42 -65 86 -36
45 -65 86 -65 92 0 6 27 43 60 84 33 40 60 75 60 78 0 3 -29 5 -64 5 l-64 0
-29 -45 c-15 -24 -31 -44 -34 -45 -3 0 -20 20 -39 45 l-34 45 -64 0 c-50 0
-62 -3 -55 -12z"/>
<path d="M218 709 c-25 -14 -24 -75 1 -89 44 -23 91 -1 91 44 0 44 -51 69 -92
45z"/>
<path d="M1240 450 c0 -6 113 -10 320 -10 207 0 320 4 320 10 0 6 -113 10
-320 10 -207 0 -320 -4 -320 -10z"/>
<path d="M2010 450 c0 -6 60 -10 160 -10 100 0 160 4 160 10 0 6 -60 10 -160
10 -100 0 -160 -4 -160 -10z"/>
<path d="M2650 450 c0 -7 160 -10 460 -10 300 0 460 3 460 10 0 7 -160 10
-460 10 -300 0 -460 -3 -460 -10z"/>
<path d="M2603 372 c-13 -8 -16 -23 -14 -75 1 -45 21 -41 21 4 0 16 5 29 12
29 9 0 9 3 0 12 -9 9 -7 14 6 24 14 11 14 13 2 14 -8 0 -20 -4 -27 -8z"/>
<path d="M2661 362 c-11 -21 -2 -104 10 -96 5 3 9 18 9 35 0 16 5 29 13 29 8
0 7 4 -3 11 -11 8 -12 12 -2 16 17 7 15 23 -3 23 -8 0 -19 -8 -24 -18z"/>
<path d="M3142 328 c-2 -52 10 -80 26 -63 3 3 1 9 -5 13 -7 4 -13 30 -16 57
l-3 50 -2 -57z"/>
<path d="M1291 350 c14 -31 19 -36 19 -24 0 6 -7 19 -16 30 -14 18 -14 18 -3
-6z"/>
<path d="M1363 330 c0 -25 2 -35 4 -22 2 12 2 32 0 45 -2 12 -4 2 -4 -23z"/>
<path d="M2350 363 c23 -9 30 -24 30 -65 0 -21 5 -38 10 -38 6 0 10 19 10 43
0 24 5 48 12 55 9 9 2 12 -32 11 -25 0 -38 -3 -30 -6z"/>
<path d="M2892 320 c13 -29 28 -52 33 -52 12 -1 31 36 40 77 6 29 6 29 -9 11
-9 -11 -16 -28 -16 -38 0 -27 -13 -21 -31 14 -26 55 -41 44 -17 -12z"/>
<path d="M2998 363 c7 -3 16 -2 19 1 4 3 -2 6 -13 5 -11 0 -14 -3 -6 -6z"/>
<path d="M3283 348 c-20 -33 14 -105 39 -80 9 9 8 12 -5 12 -22 0 -22 36 0 48
15 9 14 11 -5 21 -16 8 -23 8 -29 -1z"/>
<path d="M3195 340 c-3 -5 3 -10 14 -10 28 0 27 -13 -1 -25 -33 -14 -29 -39 6
-43 30 -4 46 10 46 40 0 33 -50 63 -65 38z m35 -50 c0 -5 -7 -10 -16 -10 -8 0
-12 5 -9 10 3 6 10 10 16 10 5 0 9 -4 9 -10z"/>
<path d="M1447 294 c3 -64 13 -69 13 -6 0 29 -3 52 -7 52 -5 0 -7 -21 -6 -46z"/>
<path d="M1973 305 c0 -22 2 -30 4 -17 2 12 2 30 0 40 -3 9 -5 -1 -4 -23z"/>
<path d="M2058 313 c5 -21 7 -23 10 -9 2 10 0 22 -6 28 -6 6 -7 0 -4 -19z"/>
<path d="M2440 299 c0 -24 4 -38 10 -34 6 3 10 19 10 35 0 15 6 31 13 33 6 3
2 6 -10 6 -20 1 -23 -4 -23 -40z"/>
<path d="M2518 333 c29 -6 28 -19 -3 -27 -45 -11 -25 -46 26 -46 17 0 20 6 17
38 -3 33 -6 37 -33 39 -20 1 -23 0 -7 -4z m22 -43 c0 -5 -7 -10 -15 -10 -8 0
-15 5 -15 10 0 6 7 10 15 10 8 0 15 -4 15 -10z"/>
<path d="M2720 300 c0 -22 5 -40 10 -40 6 0 10 18 10 40 0 22 -4 40 -10 40 -5
0 -10 -18 -10 -40z"/>
<path d="M2764 315 c-4 -15 -1 -32 6 -40 14 -17 50 -20 50 -5 0 6 -9 10 -20
10 -28 0 -26 38 3 50 21 8 21 9 -5 9 -21 1 -29 -5 -34 -24z"/>
<path d="M2990 300 c0 -22 5 -40 10 -40 6 0 10 18 10 40 0 22 -4 40 -10 40 -5
0 -10 -18 -10 -40z"/>
<path d="M3047 333 c-11 -10 -8 -61 4 -68 5 -4 21 -4 33 -1 44 11 37 76 -8 76
-12 0 -26 -3 -29 -7z m41 -31 c2 -14 -2 -22 -12 -22 -19 0 -28 14 -20 35 9 21
28 14 32 -13z"/>
<path d="M3350 300 c0 -22 5 -40 10 -40 6 0 10 18 10 40 0 22 -4 40 -10 40 -5
0 -10 -18 -10 -40z"/>
<path d="M3394 326 c-9 -23 -1 -48 19 -60 25 -16 52 4 52 40 0 25 -4 29 -33
32 -22 2 -34 -2 -38 -12z m54 -24 c3 -17 -2 -22 -17 -22 -14 0 -21 6 -21 18 0
38 33 41 38 4z"/>
<path d="M3490 300 c0 -22 5 -40 10 -40 6 0 10 16 10 36 0 28 3 35 18 32 11
-2 18 -14 20 -36 2 -18 7 -30 11 -28 4 3 5 21 3 40 -4 33 -7 36 -38 36 -33 0
-34 -1 -34 -40z"/>
<path d="M1481 305 c-1 -25 17 -45 39 -44 10 0 9 3 -5 8 -11 4 -23 19 -26 32
-6 21 -7 21 -8 4z"/>
<path d="M1245 289 c-4 -6 -5 -12 -2 -15 2 -3 7 2 10 11 7 17 1 20 -8 4z"/>
<path d="M2278 263 c7 -3 16 -2 19 1 4 3 -2 6 -13 5 -11 0 -14 -3 -6 -6z"/>
<path d="M2336 168 c-24 -57 -28 -78 -17 -78 6 0 11 5 11 10 0 6 11 10 25 10
14 0 25 -4 25 -10 0 -5 5 -10 10 -10 6 0 10 7 10 15 0 15 -39 95 -47 95 -2 0
-10 -15 -17 -32z m34 -29 c0 -5 -7 -9 -15 -9 -15 0 -20 12 -9 23 8 8 24 -1 24
-14z"/>
<path d="M2620 151 c0 -48 20 -85 35 -61 3 5 1 10 -4 10 -6 0 -11 21 -11 50 0
28 -4 50 -10 50 -5 0 -10 -22 -10 -49z"/>
<path d="M2680 189 c0 -5 5 -7 10 -4 6 3 10 8 10 11 0 2 -4 4 -10 4 -5 0 -10
-5 -10 -11z"/>
<path d="M2965 190 c3 -5 8 -10 11 -10 2 0 4 5 4 10 0 6 -5 10 -11 10 -5 0 -7
-4 -4 -10z"/>
<path d="M1246 159 c-9 -45 -7 -69 4 -69 6 0 10 11 10 25 0 14 4 25 9 25 5 0
12 -11 15 -25 8 -30 26 -34 26 -6 0 28 18 36 22 9 5 -33 28 -35 28 -1 0 74
-26 96 -49 41 l-13 -33 -11 33 c-13 41 -33 41 -41 1z"/>
<path d="M2898 178 c-15 -41 18 -118 37 -88 4 6 1 10 -4 10 -15 0 -14 47 1 52
9 3 8 9 -4 21 -20 20 -24 21 -30 5z"/>
<path d="M2207 174 c-7 -8 3 -76 14 -88 15 -17 21 1 8 22 -10 16 -10 23 0 36
18 21 -2 49 -22 30z"/>
<path d="M1475 162 c-9 -10 -5 -72 5 -72 6 0 10 14 10 31 0 41 32 36 41 -6 6
-29 7 -29 8 8 0 20 -2 37 -6 38 -5 0 -18 2 -31 3 -12 2 -24 0 -27 -2z"/>
<path d="M1585 160 c-19 -8 -19 -9 3 -9 27 -1 30 -21 2 -21 -13 0 -20 -7 -20
-19 0 -26 13 -33 45 -25 19 5 25 13 25 33 0 25 -16 52 -29 50 -4 0 -15 -4 -26
-9z m35 -50 c0 -5 -7 -10 -15 -10 -8 0 -15 5 -15 10 0 6 7 10 15 10 8 0 15 -4
15 -10z"/>
<path d="M1676 157 c-28 -20 -18 -61 17 -65 15 -2 27 -8 27 -13 0 -9 -14 -13
-40 -9 -11 1 -12 -1 -4 -10 7 -7 21 -9 33 -5 18 5 21 14 21 55 0 34 -4 50 -16
54 -20 8 -17 8 -38 -7z m44 -26 c0 -11 -5 -23 -11 -27 -15 -9 -33 12 -26 30 9
23 37 20 37 -3z"/>
<path d="M1778 159 c-27 -15 -23 -57 7 -71 19 -9 28 -9 37 0 9 9 6 12 -15 12
-15 0 -27 5 -27 10 0 6 11 10 24 10 32 0 40 14 20 34 -18 19 -23 19 -46 5z
m42 -19 c0 -5 -6 -10 -14 -10 -8 0 -18 5 -21 10 -3 6 3 10 14 10 12 0 21 -4
21 -10z"/>
<path d="M1878 162 c-13 -2 -18 -13 -18 -38 0 -19 5 -34 10 -34 6 0 10 14 10
30 0 20 5 30 15 30 10 0 15 -10 15 -30 0 -16 5 -30 10 -30 6 0 10 14 10 30 0
20 5 30 15 30 10 0 15 -10 15 -30 0 -16 5 -30 10 -30 11 0 14 69 3 71 -27 4
-81 4 -95 1z"/>
<path d="M2022 158 c-7 -7 -12 -24 -12 -39 0 -32 29 -46 57 -30 16 9 14 10 -9
11 -16 0 -28 5 -28 10 0 6 11 10 25 10 30 0 34 25 6 40 -24 13 -24 13 -39 -2z
m38 -18 c0 -5 -7 -10 -15 -10 -8 0 -15 5 -15 10 0 6 7 10 15 10 8 0 15 -4 15
-10z"/>
<path d="M2124 162 c-13 -8 -24 -72 -12 -72 4 0 8 14 8 31 0 24 4 30 18 27 10
-2 18 -14 20 -31 2 -15 8 -27 13 -27 15 0 10 47 -7 64 -17 18 -24 19 -40 8z"/>
<path d="M2443 163 c-9 -3 -13 -24 -12 -61 1 -31 3 -49 6 -39 2 9 12 17 22 17
40 0 57 61 22 80 -11 5 -21 10 -23 9 -2 0 -9 -3 -15 -6z m34 -29 c8 -21 -13
-42 -28 -27 -13 13 -5 43 11 43 6 0 13 -7 17 -16z"/>
<path d="M2538 163 c-14 -3 -18 -15 -18 -53 0 -27 5 -52 10 -55 6 -3 10 1 10
9 0 9 8 16 18 16 41 0 59 60 23 80 -11 5 -21 9 -23 9 -2 -1 -11 -3 -20 -6z
m37 -39 c0 -10 -8 -20 -17 -22 -18 -3 -26 27 -11 42 12 11 28 0 28 -20z"/>
<path d="M2738 159 c-38 -22 -10 -91 29 -73 16 7 15 8 -4 11 -31 6 -33 53 -2
53 11 0 17 5 14 10 -8 12 -15 12 -37 -1z"/>
<path d="M2815 160 c-3 -6 4 -10 17 -11 22 -1 22 -1 -4 -10 -51 -19 -37 -67
16 -53 20 5 26 12 26 33 0 40 -38 69 -55 41z m35 -50 c0 -5 -7 -10 -15 -10 -8
0 -15 5 -15 10 0 6 7 10 15 10 8 0 15 -4 15 -10z"/>
<path d="M2967 163 c-11 -10 -8 -73 3 -73 6 0 10 18 10 40 0 41 -2 45 -13 33z"/>
<path d="M3016 148 c-26 -36 16 -86 49 -58 28 23 13 80 -21 80 -7 0 -20 -10
-28 -22z m48 -7 c9 -14 -4 -41 -20 -41 -8 0 -14 10 -14 25 0 25 23 35 34 16z"/>
<path d="M3123 163 c-15 -6 -18 -73 -3 -73 6 0 10 14 10 30 0 20 5 30 15 30
10 0 15 -10 15 -30 0 -16 5 -30 10 -30 6 0 10 15 10 34 0 39 -21 54 -57 39z"/>
<path d="M1403 153 c24 -6 21 -23 -4 -23 -15 0 -20 -5 -17 -22 2 -17 10 -23
31 -24 25 -1 27 2 27 37 0 36 -2 39 -27 38 -17 -1 -21 -3 -10 -6z m17 -43 c0
-5 -7 -10 -15 -10 -8 0 -15 5 -15 10 0 6 7 10 15 10 8 0 15 -4 15 -10z"/>
<path d="M2676 144 c-9 -24 -7 -54 4 -54 6 0 10 16 10 35 0 38 -4 44 -14 19z"/>
</g>
</svg>
